<svg width="1920" height="1080" viewBox="0 0 1920 1080" xmlns="http://www.w3.org/2000/svg"><rect width="1920" height="1080" fill="#181818"/><path d="M 0,1080 C 0,1080 0,360 0,360 C 138.56459330143542,389.35885167464113 277.12918660287085,418.71770334928226 442,441 C 606.8708133971292,463.28229665071774 798.0478468899521,478.488038277512 899,446 C 999.9521531100479,413.511961722488 1010.6794258373207,333.3301435406699 1106,322 C 1201.3205741626793,310.6698564593301 1381.2344497607655,368.19138755980856 1531,386 C 1680.7655502392345,403.80861244019144 1800.3827751196172,381.9043062200957 1920,360 C 1920,360 1920,1080 1920,1080 Z" fill="#8758ff" opacity="0.19999999999999998"/><path d="M 0,1080 C 0,1080 0,720 0,720 C 158.4688995215311,694.1148325358852 316.9377990430622,668.2296650717702 428,689 C 539.0622009569378,709.7703349282298 602.7177033492824,777.1961722488039 703,822 C 803.2822966507176,866.8038277511961 940.1913875598086,888.9856459330143 1113,847 C 1285.8086124401914,805.0143540669857 1494.5167464114834,698.8612440191387 1635,667 C 1775.4832535885166,635.1387559808613 1847.7416267942583,677.5693779904307 1920,720 C 1920,720 1920,1080 1920,1080 Z" fill="#8758ff" opacity="0.39999999999999997"/></svg>